<svg width="19" height="19" viewBox="0 0 19 19" fill="none" xmlns="http://www.w3.org/2000/svg">
<path fill-rule="evenodd" clip-rule="evenodd" d="M-2.34988e-05 5.12985C-0.118991 2.97044 2.92102 -1.34332 4.11323 0.411047C4.11829 0.41611 4.12082 0.421173 4.12335 0.426236L6.60902 4.42862C6.64193 4.48178 6.87986 4.93493 6.89252 4.99568C7.08489 6.02096 6.06987 7.0032 5.29784 8.13734C5.20166 8.2791 5.11813 8.51707 5.20166 8.66643C5.89015 9.86892 6.51283 10.6056 7.45192 11.5473C8.39101 12.4891 9.13013 13.1093 10.3325 13.7979C10.4818 13.884 10.7172 13.7979 10.8615 13.7017C11.9955 12.9321 12.9776 11.9144 14.0027 12.1068C14.0635 12.1195 14.5191 12.3549 14.5697 12.3903L18.5716 14.8763C18.5716 14.8763 18.5817 14.8814 18.5868 14.8864C20.3409 16.0788 16.0277 19.1192 13.8686 18.9977C10.7425 18.823 7.36333 16.9193 4.72072 14.2763C2.07812 11.6385 0.174631 8.25632 -2.34988e-05 5.12985Z" fill="url(#paint0_linear_3039_653)"/>
<defs>
<linearGradient id="paint0_linear_3039_653" x1="0.922344" y1="2.85513" x2="16.7024" y2="19.1528" gradientUnits="userSpaceOnUse">
<stop offset="4.86654e-09" stop-color="white"/>
<stop offset="1" stop-color="#C2C2C2"/>
</linearGradient>
</defs>
</svg>
